<svg width="839" height="76" viewBox="0 0 839 76" fill="none" xmlns="http://www.w3.org/2000/svg">
<path d="M233.273 71.1725L248.744 57.3124C251.485 54.8568 255.033 53.4947 258.714 53.485L816.641 52.0141C820.106 52.005 823.462 50.7962 826.137 48.5931L833.536 42.5001C836.996 39.6507 839 35.4034 839 30.9211V17V0H820L19.5 0.5H0V20V54.1035C0 55.6911 0.243079 57.2692 0.828729 58.7449C1.90821 61.4648 3.96078 65.9934 6.5 68.5C9.35444 71.3178 14.6662 73.399 17.5371 74.3775C18.8328 74.8192 20.1942 75 21.5631 75H223.264C226.958 75 230.521 73.6371 233.273 71.1725Z" fill="#D72121"/>
<path d="M12.56 18V16.56H21.12C26.9867 16.56 30.04 16.5733 30.28 16.6C33.5867 16.84 36.08 17.84 37.76 19.6C38.8 20.72 39.4533 22.04 39.72 23.56C39.7733 23.8 39.8 24.2133 39.8 24.8C39.8 25.5467 39.7333 26.16 39.6 26.64C39.28 28.08 38.5333 29.32 37.36 30.36C35.8667 31.64 33.9733 32.44 31.68 32.76C30.96 32.8667 29.3333 32.92 26.8 32.92H23.56V37V41.12H25.72H27.88V42.56V44H27.36C27.3867 44 26.1067 43.9733 23.52 43.92C21.3067 43.8933 19.0933 43.8933 16.88 43.92L13.08 44H12.56V42.56V41.12H14.72H16.88V30.28V19.44H14.72H12.56V18ZM29.32 19.52C29.16 19.4933 28.0933 19.4667 26.12 19.44H23.32V24.84V30.28H25.72C28.0667 30.28 29.5867 30.1733 30.28 29.96C31.1867 29.6933 31.8133 29.28 32.16 28.72C32.56 28.0267 32.7467 26.5867 32.72 24.4C32.6933 23.1467 32.6133 22.2667 32.48 21.76C32.3733 21.3067 32.1867 20.9467 31.92 20.68C31.44 20.12 30.5733 19.7333 29.32 19.52ZM58.3653 16.16C59.2453 16.1067 60.352 16.12 61.6853 16.2C65.312 16.6 68.232 17.8933 70.4453 20.08C72.6053 22.24 73.8986 25.08 74.3253 28.6C74.432 29.6667 74.432 30.8267 74.3253 32.08C74.3253 32.1333 74.3253 32.1867 74.3253 32.24C73.9253 35.5733 72.6986 38.2933 70.6453 40.4C69.6586 41.36 68.5386 42.16 67.2853 42.8C65.632 43.6 63.7653 44.12 61.6853 44.36C60.5653 44.4667 59.312 44.4667 57.9253 44.36C57.8453 44.36 57.7786 44.36 57.7253 44.36C53.9386 43.9067 50.9653 42.5867 48.8053 40.4C46.7253 38.32 45.4853 35.6 45.0853 32.24C44.9786 31.2267 44.9786 30.08 45.0853 28.8C45.0853 28.72 45.0853 28.6533 45.0853 28.6C45.2986 27 45.632 25.64 46.0853 24.52C47.2853 21.4533 49.2986 19.2267 52.1253 17.84C53.9386 16.9067 56.0186 16.3467 58.3653 16.16ZM60.5253 18.76C58.2853 18.52 56.3786 19.12 54.8053 20.56C54.432 20.9067 54.0986 21.2933 53.8053 21.72C53.0853 22.8133 52.592 24.1733 52.3253 25.8C52.0586 27.7467 52.0186 30.0667 52.2053 32.76C52.232 33 52.2586 33.2267 52.2853 33.44C52.5786 36.5067 53.5386 38.7333 55.1653 40.12C56.9253 41.5867 58.9253 42.08 61.1653 41.6C62.312 41.36 63.3386 40.8667 64.2453 40.12C65.872 38.7333 66.832 36.5067 67.1253 33.44C67.392 31.2 67.4053 28.8267 67.1653 26.32C67.1386 26.1333 67.112 25.96 67.0853 25.8C66.8986 24.6533 66.5786 23.5867 66.1253 22.6C65.0053 20.3333 63.1386 19.0533 60.5253 18.76ZM78.5756 18V16.56H79.0956C79.069 16.56 80.349 16.5867 82.9356 16.64C85.149 16.6667 87.3623 16.6667 89.5756 16.64L93.3756 16.56H93.8956V18V19.44H91.7356H89.5756V24.72V29.96L89.9356 29.64C89.829 29.7467 91.8023 27.9867 95.8556 24.36L101.416 19.44H100.256H99.0556V18V16.56H99.4956C99.469 16.56 100.642 16.5867 103.016 16.64C105.042 16.6667 106.696 16.6667 107.976 16.64L110.176 16.56H110.456V18V19.44H108.136H105.776L101.456 23.28L97.0956 27.16L102.096 34.16L107.096 41.12H109.096H111.096V42.56V44H110.696L107.616 43.92C105.829 43.8933 103.802 43.8933 101.536 43.92C98.8956 43.9733 97.589 44 97.6156 44H97.0956V42.56V41.12H98.3756L99.6956 41.08L96.1356 36.16L92.5356 31.2L91.0556 32.52L89.5756 33.8V37.48V41.12H91.7356H93.8956V42.56V44H93.3756C93.4023 44 92.1223 43.9733 89.5356 43.92C87.3223 43.8933 85.109 43.8933 82.8956 43.92L79.0956 44H78.5756V42.56V41.12H80.7356H82.8956V30.28V19.44H80.7356H78.5756V18ZM114.63 18.24V16.8H127.03H139.47V16.96C139.497 17.0667 139.71 18.7867 140.11 22.12C140.457 25.3733 140.657 27.0933 140.71 27.28V27.44H139.27H137.83L137.75 26.76C137.51 25.0267 137.19 23.7067 136.79 22.8C135.964 21.12 134.43 20.12 132.19 19.8C131.47 19.72 130.124 19.68 128.15 19.68H125.63V24.04V28.44H126.35C127.577 28.44 128.47 28.2933 129.03 28C129.484 27.8133 129.817 27.52 130.03 27.12C130.404 26.5067 130.59 25.56 130.59 24.28V23.76H132.03H133.47V29.88V36H132.03H130.59V35.48C130.59 34.2 130.404 33.2533 130.03 32.64C129.817 32.24 129.484 31.9467 129.03 31.76C128.47 31.4667 127.577 31.32 126.35 31.32H125.63V36.2V41.12H128.23C130.124 41.12 131.19 41.1067 131.43 41.08C134.15 40.8933 136.07 40.0133 137.19 38.44C137.324 38.28 137.497 37.9733 137.71 37.52C138.19 36.5867 138.604 35.12 138.95 33.12C139.004 32.5867 139.057 32.2667 139.11 32.16V32.04H140.55H141.99V32.16C141.964 32.2133 141.657 34.16 141.07 38C140.484 41.8667 140.177 43.8267 140.15 43.88V44H127.39H114.63V42.56V41.12H116.79H118.95V30.4V19.68H116.79H114.63V18.24ZM144.865 18V16.56H153.705C159.758 16.56 162.905 16.5733 163.145 16.6C165.358 16.76 167.331 17.28 169.065 18.16C172.478 19.8933 174.638 22.72 175.545 26.64C175.598 26.9333 175.651 27.2267 175.705 27.52C176.158 30.1067 176.051 32.5467 175.385 34.84C174.371 38.3067 172.318 40.8133 169.225 42.36C167.758 43.1333 165.985 43.6533 163.905 43.92C163.611 43.9467 160.345 43.9733 154.105 44H144.865V42.56V41.12H147.025H149.185V30.28V19.44H147.025H144.865V18ZM161.265 19.48C161.078 19.4533 160.051 19.44 158.185 19.44H155.625V30.28V41.12H158.545C160.651 41.0933 161.798 41.0667 161.985 41.04C164.305 40.7467 166.065 39.9333 167.265 38.6C168.278 37.4533 168.865 35.6933 169.025 33.32C169.131 31.1867 169.131 29.2 169.025 27.36C168.998 27.2267 168.985 27.12 168.985 27.04C168.718 24.0533 167.665 21.9733 165.825 20.8C165.585 20.6667 165.331 20.5333 165.065 20.4C164.051 19.92 162.785 19.6133 161.265 19.48ZM180.138 18.24V16.8H192.538H204.978V16.96C205.005 17.0667 205.218 18.7867 205.618 22.12C205.965 25.3733 206.165 27.0933 206.218 27.28V27.44H204.778H203.338L203.258 26.76C203.018 25.0267 202.698 23.7067 202.298 22.8C201.471 21.12 199.938 20.12 197.698 19.8C196.978 19.72 195.631 19.68 193.658 19.68H191.138V24.04V28.44H191.858C193.085 28.44 193.978 28.2933 194.538 28C194.991 27.8133 195.325 27.52 195.538 27.12C195.911 26.5067 196.098 25.56 196.098 24.28V23.76H197.538H198.978V29.88V36H197.538H196.098V35.48C196.098 34.2 195.911 33.2533 195.538 32.64C195.325 32.24 194.991 31.9467 194.538 31.76C193.978 31.4667 193.085 31.32 191.858 31.32H191.138V36.2V41.12H193.738C195.631 41.12 196.698 41.1067 196.938 41.08C199.658 40.8933 201.578 40.0133 202.698 38.44C202.831 38.28 203.005 37.9733 203.218 37.52C203.698 36.5867 204.111 35.12 204.458 33.12C204.511 32.5867 204.565 32.2667 204.618 32.16V32.04H206.058H207.498V32.16C207.471 32.2133 207.165 34.16 206.578 38C205.991 41.8667 205.685 43.8267 205.658 43.88V44H192.898H180.138V42.56V41.12H182.298H184.458V30.4V19.68H182.298H180.138V18.24ZM210.733 18V16.56H211.173C211.146 16.56 212.306 16.5867 214.653 16.64C216.653 16.6667 218.799 16.6667 221.093 16.64L225.053 16.56H225.573V18V19.44H224.253C223.346 19.44 222.893 19.4533 222.893 19.48L226.853 25.24C226.879 25.24 227.586 24.28 228.973 22.36L231.053 19.44H229.333H227.653V18V16.56H228.093L231.533 16.64C233.506 16.6667 235.333 16.6667 237.013 16.64L239.893 16.56H240.293V18V19.44H237.573H234.893L231.813 23.76L228.733 28.04L233.213 34.56L237.693 41.12H239.973H242.253V42.56V44H241.813C241.839 44 240.679 43.9733 238.333 43.92C236.333 43.8933 234.186 43.8933 231.893 43.92L227.933 44H227.413V42.56V41.12H228.773C229.653 41.12 230.093 41.1067 230.093 41.08L224.853 33.48L222.093 37.28L219.372 41.08L221.093 41.12H222.773V42.56V44H222.333L218.893 43.92C216.919 43.8933 215.093 43.8933 213.413 43.92L210.533 44H210.132V42.56V41.12H212.853H215.573L219.293 35.92C221.746 32.4533 222.986 30.7067 223.013 30.68L219.173 25.08L215.333 19.44H213.013H210.733V18Z" fill="#EEF87E"/>
<path d="M38.3037 55.8906H39.5439L41.3701 61.1104L43.1963 55.8906H44.4365L41.8682 63H40.8721L38.3037 55.8906ZM37.6348 55.8906H38.8701L39.0947 60.9785V63H37.6348V55.8906ZM43.8701 55.8906H45.1104V63H43.6455V60.9785L43.8701 55.8906ZM49.1582 61.8086V59.4551C49.1582 59.2858 49.1305 59.141 49.0752 59.0205C49.0199 58.8968 48.9336 58.8008 48.8164 58.7324C48.7025 58.6641 48.5544 58.6299 48.3721 58.6299C48.2158 58.6299 48.0807 58.6576 47.9668 58.7129C47.8529 58.765 47.765 58.8415 47.7031 58.9424C47.6413 59.04 47.6104 59.1556 47.6104 59.2891H46.2041C46.2041 59.0645 46.2562 58.8512 46.3604 58.6494C46.4645 58.4476 46.6159 58.2702 46.8145 58.1172C47.013 57.9609 47.249 57.8389 47.5225 57.751C47.7992 57.6631 48.1084 57.6191 48.4502 57.6191C48.8604 57.6191 49.2249 57.6875 49.5439 57.8242C49.863 57.9609 50.1136 58.166 50.2959 58.4395C50.4814 58.7129 50.5742 59.0547 50.5742 59.4648V61.7256C50.5742 62.0153 50.5921 62.2529 50.6279 62.4385C50.6637 62.6208 50.7158 62.7803 50.7842 62.917V63H49.3633C49.2949 62.8568 49.2428 62.6777 49.207 62.4629C49.1745 62.2448 49.1582 62.0267 49.1582 61.8086ZM49.3438 59.7822L49.3535 60.5781H48.5674C48.3818 60.5781 48.2207 60.5993 48.084 60.6416C47.9473 60.6839 47.835 60.7441 47.7471 60.8223C47.6592 60.8971 47.5941 60.985 47.5518 61.0859C47.5127 61.1868 47.4932 61.2975 47.4932 61.418C47.4932 61.5384 47.5208 61.6475 47.5762 61.7451C47.6315 61.8395 47.7113 61.9144 47.8154 61.9697C47.9196 62.0218 48.0417 62.0479 48.1816 62.0479C48.3932 62.0479 48.5771 62.0055 48.7334 61.9209C48.8896 61.8363 49.0101 61.7321 49.0947 61.6084C49.1826 61.4847 49.2282 61.3675 49.2314 61.2568L49.6025 61.8525C49.5505 61.986 49.4788 62.1243 49.3877 62.2676C49.2998 62.4108 49.1875 62.5459 49.0508 62.6729C48.9141 62.7965 48.7497 62.8991 48.5576 62.9805C48.3656 63.0586 48.1377 63.0977 47.874 63.0977C47.5387 63.0977 47.2344 63.0309 46.9609 62.8975C46.6908 62.7607 46.4759 62.5736 46.3164 62.3359C46.1602 62.0951 46.082 61.8216 46.082 61.5156C46.082 61.2389 46.1341 60.9932 46.2383 60.7783C46.3424 60.5635 46.4954 60.3828 46.6973 60.2363C46.9023 60.0866 47.1579 59.9743 47.4639 59.8994C47.7699 59.8213 48.1247 59.7822 48.5283 59.7822H49.3438ZM54.7783 61.8477V55.5H56.1943V63H54.9199L54.7783 61.8477ZM51.4385 60.4219V60.3193C51.4385 59.9157 51.484 59.5495 51.5752 59.2207C51.6663 58.8887 51.7998 58.6038 51.9756 58.3662C52.1514 58.1286 52.3678 57.9447 52.625 57.8145C52.8822 57.6842 53.1751 57.6191 53.5039 57.6191C53.8132 57.6191 54.0833 57.6842 54.3145 57.8145C54.5488 57.9447 54.7474 58.1302 54.9102 58.3711C55.0762 58.6087 55.2096 58.8903 55.3105 59.2158C55.4115 59.5381 55.4847 59.8913 55.5303 60.2754V60.5C55.4847 60.8678 55.4115 61.2096 55.3105 61.5254C55.2096 61.8411 55.0762 62.1178 54.9102 62.3555C54.7474 62.5898 54.5488 62.7721 54.3145 62.9023C54.0801 63.0326 53.8066 63.0977 53.4941 63.0977C53.1654 63.0977 52.8724 63.0309 52.6152 62.8975C52.3613 62.764 52.1465 62.5768 51.9707 62.3359C51.7982 62.0951 51.6663 61.8118 51.5752 61.4863C51.484 61.1608 51.4385 60.806 51.4385 60.4219ZM52.8447 60.3193V60.4219C52.8447 60.64 52.861 60.8434 52.8936 61.0322C52.9294 61.221 52.9863 61.3887 53.0645 61.5352C53.1458 61.6784 53.25 61.7907 53.377 61.8721C53.5072 61.9502 53.665 61.9893 53.8506 61.9893C54.0915 61.9893 54.29 61.9355 54.4463 61.8281C54.6025 61.7174 54.7214 61.5661 54.8027 61.374C54.8874 61.182 54.9362 60.9606 54.9492 60.71V60.0703C54.9395 59.8652 54.9102 59.6813 54.8613 59.5186C54.8158 59.3525 54.7474 59.2109 54.6562 59.0938C54.5684 58.9766 54.4577 58.8854 54.3242 58.8203C54.194 58.7552 54.0394 58.7227 53.8604 58.7227C53.6781 58.7227 53.5218 58.765 53.3916 58.8496C53.2614 58.931 53.1556 59.0433 53.0742 59.1865C52.9961 59.3298 52.9375 59.499 52.8984 59.6943C52.8626 59.8864 52.8447 60.0947 52.8447 60.3193ZM59.7246 63.0977C59.3145 63.0977 58.9466 63.0326 58.6211 62.9023C58.2956 62.7689 58.0189 62.585 57.791 62.3506C57.5664 62.1162 57.3939 61.8444 57.2734 61.5352C57.153 61.2227 57.0928 60.8906 57.0928 60.5391V60.3438C57.0928 59.9434 57.1497 59.5771 57.2637 59.2451C57.3776 58.9131 57.5404 58.625 57.752 58.3809C57.9668 58.1367 58.2272 57.9495 58.5332 57.8193C58.8392 57.6859 59.1842 57.6191 59.5684 57.6191C59.9427 57.6191 60.2747 57.681 60.5645 57.8047C60.8542 57.9284 61.0967 58.1042 61.292 58.332C61.4906 58.5599 61.6403 58.8333 61.7412 59.1523C61.8421 59.4681 61.8926 59.8197 61.8926 60.207V60.793H57.6934V59.8555H60.5107V59.748C60.5107 59.5527 60.4749 59.3786 60.4033 59.2256C60.335 59.0693 60.2308 58.9456 60.0908 58.8545C59.9508 58.7633 59.7718 58.7178 59.5537 58.7178C59.3682 58.7178 59.2087 58.7585 59.0752 58.8398C58.9417 58.9212 58.8327 59.0352 58.748 59.1816C58.6667 59.3281 58.6048 59.5007 58.5625 59.6992C58.5234 59.8945 58.5039 60.1094 58.5039 60.3438V60.5391C58.5039 60.7507 58.5332 60.946 58.5918 61.125C58.6536 61.304 58.7399 61.4587 58.8506 61.5889C58.9645 61.7191 59.1012 61.82 59.2607 61.8916C59.4235 61.9632 59.6074 61.999 59.8125 61.999C60.0664 61.999 60.3024 61.9502 60.5205 61.8525C60.7419 61.7516 60.9323 61.6003 61.0918 61.3984L61.7754 62.1406C61.6647 62.3001 61.5133 62.4531 61.3213 62.5996C61.1325 62.7461 60.9046 62.8665 60.6377 62.9609C60.3708 63.0521 60.0664 63.0977 59.7246 63.0977ZM65.1836 55.5H66.5898V61.7891L66.4482 63H65.1836V55.5ZM69.9346 60.3047V60.4072C69.9346 60.8011 69.8923 61.1624 69.8076 61.4912C69.7262 61.82 69.5993 62.1048 69.4268 62.3457C69.2542 62.5833 69.0394 62.7689 68.7822 62.9023C68.5283 63.0326 68.2288 63.0977 67.8838 63.0977C67.5615 63.0977 67.2816 63.0326 67.0439 62.9023C66.8096 62.7721 66.6126 62.5882 66.4531 62.3506C66.2936 62.113 66.165 61.8346 66.0674 61.5156C65.9697 61.1966 65.8965 60.8483 65.8477 60.4707V60.2461C65.8965 59.8685 65.9697 59.5202 66.0674 59.2012C66.165 58.8822 66.2936 58.6038 66.4531 58.3662C66.6126 58.1286 66.8096 57.9447 67.0439 57.8145C67.2783 57.6842 67.555 57.6191 67.874 57.6191C68.2223 57.6191 68.5251 57.6859 68.7822 57.8193C69.0426 57.9495 69.2575 58.1351 69.4268 58.376C69.5993 58.6136 69.7262 58.8968 69.8076 59.2256C69.8923 59.5511 69.9346 59.9108 69.9346 60.3047ZM68.5283 60.4072V60.3047C68.5283 60.0898 68.512 59.888 68.4795 59.6992C68.4502 59.5072 68.3981 59.3395 68.3232 59.1963C68.2484 59.0498 68.1458 58.9342 68.0156 58.8496C67.8887 58.765 67.7243 58.7227 67.5225 58.7227C67.3304 58.7227 67.1676 58.7552 67.0342 58.8203C66.9007 58.8854 66.79 58.9766 66.7021 59.0938C66.6175 59.2109 66.554 59.3509 66.5117 59.5137C66.4694 59.6732 66.4434 59.849 66.4336 60.041V60.6807C66.4434 60.9378 66.4857 61.1657 66.5605 61.3643C66.6387 61.5596 66.7559 61.7142 66.9121 61.8281C67.0716 61.9388 67.2783 61.9941 67.5322 61.9941C67.7308 61.9941 67.8952 61.9551 68.0254 61.877C68.1556 61.7988 68.2565 61.6882 68.3281 61.5449C68.403 61.4017 68.4551 61.234 68.4844 61.042C68.5137 60.8467 68.5283 60.6351 68.5283 60.4072ZM72.3174 62.4043L73.7188 57.7168H75.2275L73.1035 63.7959C73.0579 63.9294 72.9961 64.0726 72.918 64.2256C72.8431 64.3786 72.7406 64.5234 72.6104 64.6602C72.4834 64.8001 72.3223 64.9141 72.127 65.002C71.9349 65.0898 71.6989 65.1338 71.4189 65.1338C71.2855 65.1338 71.1764 65.1257 71.0918 65.1094C71.0072 65.0931 70.9062 65.0703 70.7891 65.041V64.0107C70.8249 64.0107 70.8623 64.0107 70.9014 64.0107C70.9404 64.014 70.9779 64.0156 71.0137 64.0156C71.1992 64.0156 71.3506 63.9945 71.4678 63.9521C71.585 63.9098 71.6794 63.8447 71.751 63.7568C71.8226 63.6722 71.8796 63.5615 71.9219 63.4248L72.3174 62.4043ZM71.7314 57.7168L72.8789 61.5449L73.0791 63.0342L72.1221 63.1367L70.2227 57.7168H71.7314ZM81.2578 57.1064L79.3242 63H77.7666L80.4082 55.8906H81.3994L81.2578 57.1064ZM82.8643 63L80.9258 57.1064L80.7695 55.8906H81.7705L84.4268 63H82.8643ZM82.7764 60.3535V61.501H79.0215V60.3535H82.7764ZM85.0664 62.3213C85.0664 62.113 85.138 61.9388 85.2812 61.7988C85.4277 61.6589 85.6214 61.5889 85.8623 61.5889C86.1032 61.5889 86.2952 61.6589 86.4385 61.7988C86.585 61.9388 86.6582 62.113 86.6582 62.3213C86.6582 62.5296 86.585 62.7038 86.4385 62.8438C86.2952 62.9837 86.1032 63.0537 85.8623 63.0537C85.6214 63.0537 85.4277 62.9837 85.2812 62.8438C85.138 62.7038 85.0664 62.5296 85.0664 62.3213ZM91.6875 61.1396C91.6875 61.0127 91.668 60.8988 91.6289 60.7979C91.5931 60.6937 91.5247 60.5993 91.4238 60.5146C91.3229 60.4268 91.1813 60.3405 90.999 60.2559C90.8167 60.1712 90.5807 60.0833 90.291 59.9922C89.9688 59.888 89.6628 59.7708 89.373 59.6406C89.0866 59.5104 88.8327 59.359 88.6113 59.1865C88.3932 59.0107 88.2207 58.8073 88.0938 58.5762C87.9701 58.3451 87.9082 58.0765 87.9082 57.7705C87.9082 57.4743 87.9733 57.2057 88.1035 56.9648C88.2337 56.7207 88.416 56.5124 88.6504 56.3398C88.8848 56.1641 89.1615 56.029 89.4805 55.9346C89.8027 55.8402 90.1559 55.793 90.54 55.793C91.0641 55.793 91.5215 55.8874 91.9121 56.0762C92.3027 56.265 92.6055 56.5238 92.8203 56.8525C93.0384 57.1813 93.1475 57.5573 93.1475 57.9805H91.6924C91.6924 57.7721 91.6484 57.5898 91.5605 57.4336C91.4759 57.2741 91.3457 57.1488 91.1699 57.0576C90.9974 56.9665 90.7793 56.9209 90.5156 56.9209C90.2617 56.9209 90.0501 56.96 89.8809 57.0381C89.7116 57.113 89.5846 57.2155 89.5 57.3457C89.4154 57.4727 89.373 57.6159 89.373 57.7754C89.373 57.8958 89.4023 58.0049 89.4609 58.1025C89.5228 58.2002 89.6139 58.2913 89.7344 58.376C89.8548 58.4606 90.0029 58.5404 90.1787 58.6152C90.3545 58.6901 90.5579 58.7633 90.7891 58.835C91.1764 58.9521 91.5166 59.084 91.8096 59.2305C92.1058 59.377 92.3532 59.5413 92.5518 59.7236C92.7503 59.9059 92.9001 60.1126 93.001 60.3438C93.1019 60.5749 93.1523 60.8369 93.1523 61.1299C93.1523 61.4391 93.0921 61.7158 92.9717 61.96C92.8512 62.2041 92.6771 62.4108 92.4492 62.5801C92.2214 62.7493 91.9495 62.8779 91.6338 62.9658C91.318 63.0537 90.9648 63.0977 90.5742 63.0977C90.2227 63.0977 89.876 63.0521 89.5342 62.9609C89.1924 62.8665 88.8815 62.7249 88.6016 62.5361C88.3249 62.3473 88.1035 62.1064 87.9375 61.8135C87.7715 61.5205 87.6885 61.1738 87.6885 60.7734H89.1582C89.1582 60.9948 89.1924 61.182 89.2607 61.335C89.3291 61.488 89.4251 61.6117 89.5488 61.7061C89.6758 61.8005 89.8255 61.8688 89.998 61.9111C90.1738 61.9535 90.3659 61.9746 90.5742 61.9746C90.8281 61.9746 91.0365 61.9388 91.1992 61.8672C91.3652 61.7956 91.4873 61.6963 91.5654 61.5693C91.6468 61.4424 91.6875 61.2992 91.6875 61.1396ZM94.1289 62.3213C94.1289 62.113 94.2005 61.9388 94.3438 61.7988C94.4902 61.6589 94.6839 61.5889 94.9248 61.5889C95.1657 61.5889 95.3577 61.6589 95.501 61.7988C95.6475 61.9388 95.7207 62.113 95.7207 62.3213C95.7207 62.5296 95.6475 62.7038 95.501 62.8438C95.3577 62.9837 95.1657 63.0537 94.9248 63.0537C94.6839 63.0537 94.4902 62.9837 94.3438 62.8438C94.2005 62.7038 94.1289 62.5296 94.1289 62.3213ZM100.75 61.1396C100.75 61.0127 100.73 60.8988 100.691 60.7979C100.656 60.6937 100.587 60.5993 100.486 60.5146C100.385 60.4268 100.244 60.3405 100.062 60.2559C99.8792 60.1712 99.6432 60.0833 99.3535 59.9922C99.0312 59.888 98.7253 59.7708 98.4355 59.6406C98.1491 59.5104 97.8952 59.359 97.6738 59.1865C97.4557 59.0107 97.2832 58.8073 97.1562 58.5762C97.0326 58.3451 96.9707 58.0765 96.9707 57.7705C96.9707 57.4743 97.0358 57.2057 97.166 56.9648C97.2962 56.7207 97.4785 56.5124 97.7129 56.3398C97.9473 56.1641 98.224 56.029 98.543 55.9346C98.8652 55.8402 99.2184 55.793 99.6025 55.793C100.127 55.793 100.584 55.8874 100.975 56.0762C101.365 56.265 101.668 56.5238 101.883 56.8525C102.101 57.1813 102.21 57.5573 102.21 57.9805H100.755C100.755 57.7721 100.711 57.5898 100.623 57.4336C100.538 57.2741 100.408 57.1488 100.232 57.0576C100.06 56.9665 99.8418 56.9209 99.5781 56.9209C99.3242 56.9209 99.1126 56.96 98.9434 57.0381C98.7741 57.113 98.6471 57.2155 98.5625 57.3457C98.4779 57.4727 98.4355 57.6159 98.4355 57.7754C98.4355 57.8958 98.4648 58.0049 98.5234 58.1025C98.5853 58.2002 98.6764 58.2913 98.7969 58.376C98.9173 58.4606 99.0654 58.5404 99.2412 58.6152C99.417 58.6901 99.6204 58.7633 99.8516 58.835C100.239 58.9521 100.579 59.084 100.872 59.2305C101.168 59.377 101.416 59.5413 101.614 59.7236C101.813 59.9059 101.963 60.1126 102.063 60.3438C102.164 60.5749 102.215 60.8369 102.215 61.1299C102.215 61.4391 102.155 61.7158 102.034 61.96C101.914 62.2041 101.74 62.4108 101.512 62.5801C101.284 62.7493 101.012 62.8779 100.696 62.9658C100.381 63.0537 100.027 63.0977 99.6367 63.0977C99.2852 63.0977 98.9385 63.0521 98.5967 62.9609C98.2549 62.8665 97.944 62.7249 97.6641 62.5361C97.3874 62.3473 97.166 62.1064 97 61.8135C96.834 61.5205 96.751 61.1738 96.751 60.7734H98.2207C98.2207 60.9948 98.2549 61.182 98.3232 61.335C98.3916 61.488 98.4876 61.6117 98.6113 61.7061C98.7383 61.8005 98.888 61.8688 99.0605 61.9111C99.2363 61.9535 99.4284 61.9746 99.6367 61.9746C99.8906 61.9746 100.099 61.9388 100.262 61.8672C100.428 61.7956 100.55 61.6963 100.628 61.5693C100.709 61.4424 100.75 61.2992 100.75 61.1396Z" fill="#EEF87E"/>
</svg>
