<svg width="30" height="29" viewBox="0 0 30 29" fill="none" xmlns="http://www.w3.org/2000/svg">
<path d="M26.2498 25.25L20.821 19.8212M20.821 19.8212C21.7496 18.8926 22.4862 17.7902 22.9888 16.5769C23.4914 15.3636 23.75 14.0633 23.75 12.75C23.75 11.4367 23.4914 10.1364 22.9888 8.92307C22.4862 7.70978 21.7496 6.60736 20.821 5.67875C19.8924 4.75014 18.79 4.01353 17.5767 3.51097C16.3634 3.00841 15.063 2.74974 13.7498 2.74974C12.4365 2.74974 11.1361 3.00841 9.92284 3.51097C8.70955 4.01353 7.60713 4.75014 6.67852 5.67875C4.80311 7.55416 3.74951 10.0978 3.74951 12.75C3.74951 15.4022 4.80311 17.9458 6.67852 19.8212C8.55393 21.6967 11.0975 22.7503 13.7498 22.7503C16.402 22.7503 18.9456 21.6967 20.821 19.8212Z" stroke="#2B1F08" stroke-width="2.5" stroke-linecap="round" stroke-linejoin="round"/>
</svg>
